<?xml version="1.0" encoding="UTF-8"?>
<svg width="80" height="80" viewBox="0 0 80 80" xmlns="http://www.w3.org/2000/svg">
  <!-- Градиентная заливка для фона -->
  <defs>
    <linearGradient id="bgGradient" x1="0%" y1="0%" x2="100%" y2="100%">
      <stop offset="0%" stop-color="#6146B3" />
      <stop offset="100%" stop-color="#9C72E2" />
    </linearGradient>
    <!-- Градиент для блика -->
    <linearGradient id="shineGradient" x1="0%" y1="0%" x2="100%" y2="100%">
      <stop offset="0%" stop-color="#FFFFFF" stop-opacity="0.5" />
      <stop offset="100%" stop-color="#FFFFFF" stop-opacity="0" />
    </linearGradient>
    <!-- Фильтр для тени -->
    <filter id="dropShadow" x="-20%" y="-20%" width="140%" height="140%">
      <feGaussianBlur in="SourceAlpha" stdDeviation="2" />
      <feOffset dx="0" dy="2" result="offsetblur" />
      <feComponentTransfer>
        <feFuncA type="linear" slope="0.3" />
      </feComponentTransfer>
      <feMerge>
        <feMergeNode />
        <feMergeNode in="SourceGraphic" />
      </feMerge>
    </filter>
  </defs>

  <!-- Фон с закругленными углами -->
  <rect x="2" y="2" width="76" height="76" rx="16" ry="16" fill="url(#bgGradient)" filter="url(#dropShadow)" />

  <!-- Декоративные элементы -->
  <path d="M10,30 C15,25 25,20 40,20 C55,20 65,25 70,30" stroke="#FFFFFF" stroke-width="2" fill="none" stroke-opacity="0.3" />
  <path d="M10,50 C15,55 25,60 40,60 C55,60 65,55 70,50" stroke="#FFFFFF" stroke-width="2" fill="none" stroke-opacity="0.3" />

  <!-- Блик сверху для объема -->
  <path d="M5,18 Q20,10 40,10 Q60,10 75,18 L75,25 Q60,15 40,15 Q20,15 5,25 Z" fill="url(#shineGradient)" />

  <!-- Название компании с текстовыми эффектами -->
  <g filter="url(#dropShadow)">
    <text x="40" y="47" font-family="Arial Black, Helvetica, sans-serif" font-size="22" font-weight="bold" text-anchor="middle" fill="white">GETTER</text>
  </g>

  <!-- Декоративный элемент -->
  <circle cx="40" cy="58" r="2" fill="white" />
</svg> 