<?xml version="1.0" encoding="UTF-8"?>
<svg width="24" height="24" viewBox="0 0 24 24" xmlns="http://www.w3.org/2000/svg">
  <defs>
    <filter id="vkDropShadow" x="-50%" y="-50%" width="200%" height="200%">
      <feGaussianBlur in="SourceAlpha" stdDeviation="1" />
      <feOffset dx="0" dy="0.5" result="offsetblur" />
      <feComponentTransfer>
        <feFuncA type="linear" slope="0.2" />
      </feComponentTransfer>
      <feMerge>
        <feMergeNode />
        <feMergeNode in="SourceGraphic" />
      </feMerge>
    </filter>
    <linearGradient id="vkGradient" x1="0%" y1="0%" x2="100%" y2="100%">
      <stop offset="0%" stop-color="#5181B8" />
      <stop offset="100%" stop-color="#4A76A8" />
    </linearGradient>
    <linearGradient id="vkHighlight" x1="0%" y1="0%" x2="100%" y2="100%">
      <stop offset="0%" stop-color="#FFFFFF" stop-opacity="0.3" />
      <stop offset="100%" stop-color="#FFFFFF" stop-opacity="0" />
    </linearGradient>
  </defs>
  
  <!-- Круглый фон -->
  <circle cx="12" cy="12" r="11" fill="url(#vkGradient)" filter="url(#vkDropShadow)" />
  
  <!-- Небольшой блик для эффекта объема -->
  <path d="M2,12 a10,10 0 0,1 10,-10 a10,10 0 0,1 10,10" fill="url(#vkHighlight)" />
  
  <!-- Иконка VK -->
  <path d="M12.5,16.8h-1c-3.3,0-5.2-2.3-5.6-6.1h-1.6v-2h2.5c0.3-2.9,1.3-4.1,2-4.7c1.2-1,2.3-1,2.7-1h2c0.7,0,2.2,0.3,3,1.9
  c0.8,1.5,0.8,3.5,0.8,3.7v0.2h-2v-0.2c0-0.1-0.1-1.6-0.6-2.5c-0.4-0.8-1.1-0.8-1.2-0.8h-2c-0.2,0-0.8,0-1.5,0.5
  c-0.7,0.6-1.3,1.7-1.5,4.1h3.7c-0.2,1.6-0.7,5.1-3.7,6.2v0.1h4.1c0.7-0.2,2.2-1,2.2-4.2v-1.8h2v1.8
  C15.7,15.9,13.6,16.8,12.5,16.8z" fill="white" />
</svg> 